SplineFontDB: 3.2
FontName: ZXSpectrumJJK
FullName: ZXSpectrumJJK
FamilyName: ZXSpectrumJJK
Weight: Medium
Copyright: WhoAmI Design, July'98 -- www.btinternet.com/~whoami
Version: 001.000
ItalicAngle: 0
UnderlinePosition: -178
UnderlineWidth: 25
Ascent: 1638
Descent: 410
InvalidEm: 0
sfntRevision: 0x00010000
LayerCount: 2
Layer: 0 1 "Back" 1
Layer: 1 1 "Fore" 0
XUID: [1021 315 -1837517829 16713]
StyleMap: 0x0040
FSType: 6
OS2Version: 0
OS2_WeightWidthSlopeOnly: 0
OS2_UseTypoMetrics: 0
CreationTime: -2082844800
ModificationTime: 1723510179
PfmFamily: 17
TTFWeight: 500
TTFWidth: 5
LineGap: 0
VLineGap: 0
Panose: 2 11 6 0 0 0 0 0 0 0
OS2TypoAscent: 1792
OS2TypoAOffset: 0
OS2TypoDescent: 0
OS2TypoDOffset: 0
OS2TypoLinegap: 0
OS2WinAscent: 2048
OS2WinAOffset: 0
OS2WinDescent: 0
OS2WinDOffset: 0
HheadAscent: 1792
HheadAOffset: 0
HheadDescent: -20
HheadDOffset: 0
OS2SubXSize: 410
OS2SubYSize: 369
OS2SubXOff: 0
OS2SubYOff: 0
OS2SupXSize: 410
OS2SupYSize: 369
OS2SupXOff: 0
OS2SupYOff: 1664
OS2StrikeYSize: 102
OS2StrikeYPos: 530
OS2Vendor: 'PfEd'
OS2UnicodeRanges: 00000000.00000000.00000000.00000000
MarkAttachClasses: 1
DEI: 91125
TtTable: prep
NPUSHB
 28
 4
 19
 3
 16
 2
 19
 39
 14
 13
 4
 39
 4
 36
 2
 31
 2
 29
 3
 28
 5
 25
 6
 39
 39
 21
 13
 48
 0
SCANTYPE
PUSHW_1
 828
SCANCTRL
SCVTCI
CALL
CALL
EndTTInstrs
TtTable: fpgm
NPUSHB
 22
 21
 20
 19
 18
 17
 16
 15
 14
 13
 12
 11
 10
 9
 8
 7
 6
 5
 4
 3
 2
 1
 0
FDEF
PUSHB_3
 0
 128
 0
RS
DUP
ROLL
DIV
ROLL
SWAP
WS
FLOOR
ODD
ENDF
FDEF
PUSHB_3
 42
 0
 0
RS
EQ
JROT
PUSHB_1
 0
CALL
IF
SLOOP
IP
EIF
PUSHB_1
 0
CALL
IF
SLOOP
ALIGNRP
EIF
PUSHB_1
 0
CALL
IF
PUSHB_1
 10
LOOPCALL
EIF
PUSHB_1
 1
RS
SRP0
PUSHB_1
 0
CALL
IF
SLOOP
ALIGNRP
EIF
PUSHB_1
 0
CALL
IF
PUSHB_1
 10
LOOPCALL
EIF
ENDF
FDEF
CALL
ENDF
FDEF
CALL
PUSHB_1
 2
LOOPCALL
ENDF
FDEF
PUSHB_1
 2
LOOPCALL
ENDF
FDEF
PUSHB_1
 1
DIV
PUSHB_1
 0
SWAP
WS
PUSHB_2
 1
 3
CINDEX
WS
DUP
GC[cur]
DUP
ROUND[Grey]
SUB
ABS
PUSHB_1
 3
CINDEX
GC[cur]
DUP
ROUND[Grey]
DUP
PUSHB_1
 4
RS
SWAP
SUB
DUP

StartChar: .notdef
Encoding: 65536 -1 0
Width: 1536
GlyphClass: 1
Flags: W
LayerCount: 2
Fore
SplineSet
256 0 m 1,0,-1
 256 1280 l 1,1,-1
 1280 1280 l 1,2,-1
 1280 0 l 1,3,-1
 256 0 l 1,0,-1
1247 33 m 1,4,-1
 1247 1247 l 1,5,-1
 289 1247 l 1,6,-1
 289 33 l 1,7,-1
 1247 33 l 1,4,-1
EndSplineSet
EndChar

StartChar: exclam
Encoding: 33 33 4
Width: 2023
GlyphClass: 1
Flags: W
LayerCount: 2
Fore
SplineSet
504 1792 m 1,0,-1
 504 766 l 1,1,-1
 764 766 l 1,2,-1
 764 1792 l 1,3,-1
 504 1792 l 1,0,-1
504 256 m 1,4,-1
 764 256 l 1,5,-1
 764 514 l 1,6,-1
 504 514 l 1,7,-1
 504 256 l 1,4,-1
EndSplineSet
EndChar

StartChar: quotedbl
Encoding: 34 34 5
Width: 2023
GlyphClass: 1
Flags: W
LayerCount: 2
Fore
SplineSet
252 1278 m 1,0,-1
 512 1278 l 1,1,-1
 512 1792 l 1,2,-1
 252 1792 l 1,3,-1
 252 1278 l 1,0,-1
1008 1792 m 1,4,-1
 1008 1278 l 1,5,-1
 1268 1278 l 1,6,-1
 1268 1792 l 1,7,-1
 1008 1792 l 1,4,-1
EndSplineSet
EndChar

StartChar: numbersign
Encoding: 35 35 6
Width: 2023
GlyphClass: 1
Flags: W
LayerCount: 2
Fore
SplineSet
1268 1278 m 1,0,-1
 1520 1278 l 1,1,-1
 1520 1536 l 1,2,-1
 1268 1536 l 1,3,-1
 1268 1792 l 1,4,-1
 1008 1792 l 1,5,-1
 1008 1536 l 1,6,-1
 512 1536 l 1,7,-1
 512 1792 l 1,8,-1
 252 1792 l 1,9,-1
 252 1536 l 1,10,-1
 0 1536 l 1,11,-1
 0 1278 l 1,12,-1
 252 1278 l 1,13,-1
 252 770 l 1,14,-1
 0 770 l 1,15,-1
 0 512 l 1,16,-1
 252 512 l 1,17,-1
 252 256 l 1,18,-1
 512 256 l 1,19,-1
 512 512 l 1,20,-1
 1008 512 l 1,21,-1
 1008 256 l 1,22,-1
 1268 256 l 1,23,-1
 1268 512 l 1,24,-1
 1520 512 l 1,25,-1
 1520 770 l 1,26,-1
 1268 770 l 1,27,-1
 1268 1278 l 1,0,-1
1008 770 m 1,28,-1
 512 770 l 1,29,-1
 512 1278 l 1,30,-1
 1008 1278 l 1,31,-1
 1008 770 l 1,28,-1
EndSplineSet
EndChar

StartChar: dollar
Encoding: 36 36 7
Width: 2023
GlyphClass: 1
Flags: W
LayerCount: 2
Fore
SplineSet
1520 1278 m 1,0,-1
 1520 1536 l 1,1,-1
 1016 1536 l 1,2,-1
 1016 1792 l 1,3,-1
 756 1792 l 1,4,-1
 756 1536 l 1,5,-1
 252 1536 l 1,6,-1
 252 766 l 1,7,-1
 756 766 l 1,8,-1
 756 514 l 1,9,-1
 252 514 l 1,10,-1
 252 256 l 1,11,-1
 756 256 l 1,12,-1
 756 0 l 1,13,-1
 1016 0 l 1,14,-1
 1016 256 l 1,15,-1
 1520 256 l 1,16,-1
 1520 1026 l 1,17,-1
 1016 1026 l 1,18,-1
 1016 1278 l 1,19,-1
 1520 1278 l 1,0,-1
512 1026 m 1,20,-1
 512 1278 l 1,21,-1
 756 1278 l 1,22,-1
 756 1026 l 1,23,-1
 512 1026 l 1,20,-1
1260 766 m 1,24,-1
 1260 514 l 1,25,-1
 1016 514 l 1,26,-1
 1016 766 l 1,27,-1
 1260 766 l 1,24,-1
EndSplineSet
EndChar

StartChar: percent
Encoding: 37 37 8
Width: 2023
GlyphClass: 1
Flags: W
LayerCount: 2
Fore
SplineSet
1260 1792 m 1,0,-1
 1260 1536 l 1,1,-1
 1008 1536 l 1,2,-1
 1008 1282 l 1,3,-1
 756 1282 l 1,4,-1
 756 1026 l 1,5,-1
 504 1026 l 1,6,-1
 504 770 l 1,7,-1
 252 770 l 1,8,-1
 252 514 l 1,9,-1
 0 514 l 1,10,-1
 0 256 l 1,11,-1
 260 256 l 1,12,-1
 260 512 l 1,13,-1
 512 512 l 1,14,-1
 512 766 l 1,15,-1
 764 766 l 1,16,-1
 764 1022 l 1,17,-1
 1016 1022 l 1,18,-1
 1016 1278 l 1,19,-1
 1268 1278 l 1,20,-1
 1268 1534 l 1,21,-1
 1520 1534 l 1,22,-1
 1520 1792 l 1,23,-1
 1260 1792 l 1,0,-1
512 1278 m 1,24,-1
 512 1792 l 1,25,-1
 0 1792 l 1,26,-1
 0 1278 l 1,27,-1
 512 1278 l 1,24,-1
1008 770 m 1,28,-1
 1008 256 l 1,29,-1
 1520 256 l 1,30,-1
 1520 770 l 1,31,-1
 1008 770 l 1,28,-1
EndSplineSet
EndChar

StartChar: ampersand
Encoding: 38 38 9
Width: 2023
GlyphClass: 1
Flags: W
LayerCount: 2
Fore
SplineSet
1520 766 m 1,0,-1
 1520 1026 l 1,1,-1
 1260 1026 l 1,2,-1
 1260 770 l 1,3,-1
 1016 770 l 1,4,-1
 1016 1026 l 1,5,-1
 764 1026 l 1,6,-1
 764 1278 l 1,7,-1
 1016 1278 l 1,8,-1
 1016 1536 l 1,9,-1
 764 1536 l 1,10,-1
 764 1792 l 1,11,-1
 504 1792 l 1,12,-1
 504 1536 l 1,13,-1
 252 1536 l 1,14,-1
 252 1278 l 1,15,-1
 504 1278 l 1,16,-1
 504 1026 l 1,17,-1
 252 1026 l 1,18,-1
 252 770 l 1,19,-1
 0 770 l 1,20,-1
 0 512 l 1,21,-1
 252 512 l 1,22,-1
 252 256 l 1,23,-1
 1016 256 l 1,24,-1
 1016 512 l 1,25,-1
 1260 512 l 1,26,-1
 1260 256 l 1,27,-1
 1520 256 l 1,28,-1
 1520 514 l 1,29,-1
 1268 514 l 1,30,-1
 1268 766 l 1,31,-1
 1520 766 l 1,0,-1
512 1282 m 1,32,-1
 512 1534 l 1,33,-1
 756 1534 l 1,34,-1
 756 1282 l 1,35,-1
 512 1282 l 1,32,-1
260 514 m 1,36,-1
 260 766 l 1,37,-1
 512 766 l 1,38,-1
 512 1022 l 1,39,-1
 756 1022 l 1,40,-1
 756 766 l 1,41,-1
 1008 766 l 1,42,-1
 1008 514 l 1,43,-1
 260 514 l 1,36,-1
EndSplineSet
EndChar

StartChar: quotesingle
Encoding: 39 39 10
Width: 2023
GlyphClass: 1
Flags: W
LayerCount: 2
Fore
SplineSet
1016 1792 m 1,0,-1
 756 1792 l 1,1,-1
 756 1536 l 1,2,-1
 504 1536 l 1,3,-1
 504 1278 l 1,4,-1
 764 1278 l 1,5,-1
 764 1534 l 1,6,-1
 1016 1534 l 1,7,-1
 1016 1792 l 1,0,-1
EndSplineSet
EndChar

StartChar: parenleft
Encoding: 40 40 11
Width: 2023
GlyphClass: 1
Flags: W
LayerCount: 2
Fore
SplineSet
1257 1534 m 1,0,-1
 1509 1534 l 1,1,-1
 1509 1792 l 1,2,-1
 1249 1792 l 1,3,-1
 1249 1536 l 1,4,-1
 997 1536 l 1,5,-1
 997 512 l 1,6,-1
 1249 512 l 1,7,-1
 1249 256 l 1,8,-1
 1509 256 l 1,9,-1
 1509 514 l 1,10,-1
 1257 514 l 1,11,-1
 1257 1534 l 1,0,-1
EndSplineSet
EndChar

StartChar: parenright
Encoding: 41 41 12
Width: 2023
GlyphClass: 1
Flags: W
LayerCount: 2
Fore
SplineSet
498 1536 m 1,0,-1
 498 1792 l 1,1,-1
 238 1792 l 1,2,-1
 238 1534 l 1,3,-1
 489 1534 l 1,4,-1
 489 514 l 1,5,-1
 238 514 l 1,6,-1
 238 256 l 1,7,-1
 498 256 l 1,8,-1
 498 512 l 1,9,-1
 750 512 l 1,10,-1
 750 1536 l 1,11,-1
 498 1536 l 1,0,-1
EndSplineSet
EndChar

StartChar: asterisk
Encoding: 42 42 13
Width: 2023
GlyphClass: 1
Flags: W
LayerCount: 2
Fore
SplineSet
1016 1026 m 1,0,-1
 1016 1278 l 1,1,-1
 1268 1278 l 1,2,-1
 1268 1536 l 1,3,-1
 1008 1536 l 1,4,-1
 1008 1282 l 1,5,-1
 764 1282 l 1,6,-1
 764 1536 l 1,7,-1
 504 1536 l 1,8,-1
 504 1278 l 1,9,-1
 756 1278 l 1,10,-1
 756 1026 l 1,11,-1
 252 1026 l 1,12,-1
 252 766 l 1,13,-1
 756 766 l 1,14,-1
 756 514 l 1,15,-1
 504 514 l 1,16,-1
 504 256 l 1,17,-1
 764 256 l 1,18,-1
 764 512 l 1,19,-1
 1008 512 l 1,20,-1
 1008 256 l 1,21,-1
 1268 256 l 1,22,-1
 1268 514 l 1,23,-1
 1016 514 l 1,24,-1
 1016 766 l 1,25,-1
 1520 766 l 1,26,-1
 1520 1026 l 1,27,-1
 1016 1026 l 1,0,-1
EndSplineSet
EndChar

StartChar: plus
Encoding: 43 43 14
Width: 2023
GlyphClass: 1
Flags: W
LayerCount: 2
Fore
SplineSet
1016 1026 m 1,0,-1
 1016 1536 l 1,1,-1
 756 1536 l 1,2,-1
 756 1026 l 1,3,-1
 252 1026 l 1,4,-1
 252 766 l 1,5,-1
 756 766 l 1,6,-1
 756 256 l 1,7,-1
 1016 256 l 1,8,-1
 1016 766 l 1,9,-1
 1520 766 l 1,10,-1
 1520 1026 l 1,11,-1
 1016 1026 l 1,0,-1
EndSplineSet
EndChar

StartChar: comma
Encoding: 44 44 15
Width: 2023
GlyphClass: 1
Flags: W
LayerCount: 2
Fore
SplineSet
756 770 m 1,0,-1
 756 260 l 1,1,-1
 504 260 l 1,2,-1
 504 0 l 1,3,-1
 764 0 l 1,4,-1
 764 256 l 1,5,-1
 1016 256 l 1,6,-1
 1016 770 l 1,7,-1
 756 770 l 1,0,-1
EndSplineSet
EndChar

StartChar: hyphen
Encoding: 45 45 16
Width: 2023
GlyphClass: 1
Flags: W
LayerCount: 2
Fore
SplineSet
252 1026 m 1,0,-1
 252 766 l 1,1,-1
 1520 766 l 1,2,-1
 1520 1026 l 1,3,-1
 252 1026 l 1,0,-1
EndSplineSet
EndChar

StartChar: period
Encoding: 46 46 17
Width: 2023
GlyphClass: 1
Flags: W
LayerCount: 2
Fore
SplineSet
504 770 m 1,0,-1
 504 256 l 1,1,-1
 1016 256 l 1,2,-1
 1016 770 l 1,3,-1
 504 770 l 1,0,-1
EndSplineSet
EndChar

StartChar: slash
Encoding: 47 47 18
Width: 2023
GlyphClass: 1
Flags: W
LayerCount: 2
Fore
SplineSet
1520 1532 m 1,0,-1
 1260 1532 l 1,1,-1
 1260 1276 l 1,2,-1
 1008 1276 l 1,3,-1
 1008 1020 l 1,4,-1
 756 1020 l 1,5,-1
 756 766 l 1,6,-1
 504 766 l 1,7,-1
 504 510 l 1,8,-1
 252 510 l 1,9,-1
 252 250 l 1,10,-1
 512 250 l 1,11,-1
 512 506 l 1,12,-1
 764 506 l 1,13,-1
 764 762 l 1,14,-1
 1016 762 l 1,15,-1
 1016 1016 l 1,16,-1
 1268 1016 l 1,17,-1
 1268 1272 l 1,18,-1
 1520 1272 l 1,19,-1
 1520 1532 l 1,0,-1
EndSplineSet
EndChar

StartChar: zero
Encoding: 48 48 19
Width: 2023
GlyphClass: 1
Flags: W
LayerCount: 2
Fore
SplineSet
-0.9921875 1643.44140625 m 5,0,-1
 0 -420 l 1,1,-1
 2023 -408 l 1,2,-1
 2023 1638 l 1,3,-1
 -0.9921875 1643.44140625 l 5,0,-1
EndSplineSet
EndChar

StartChar: one
Encoding: 49 49 20
Width: 2023
GlyphClass: 1
Flags: W
LayerCount: 2
Fore
SplineSet
0 1140 m 5,0,-1
 0 -412 l 1,1,-1
 2023 -412 l 1,2,-1
 2023 1140 l 5,3,-1
 0 1140 l 5,0,-1
EndSplineSet
EndChar

StartChar: two
Encoding: 50 50 21
Width: 2023
GlyphClass: 1
Flags: W
LayerCount: 2
Fore
SplineSet
0 536 m 5,0,-1
 0 -408 l 1,1,-1
 2023 -408 l 1,2,-1
 2023 536 l 5,3,-1
 0 536 l 5,0,-1
0 1638 m 1,4,-1
 -3 1080 l 1,5,-1
 2020 1080 l 1,6,-1
 2023 1638 l 1,7,-1
 0 1638 l 1,4,-1
EndSplineSet
EndChar

StartChar: three
Encoding: 51 51 22
Width: 2023
GlyphClass: 1
Flags: W
LayerCount: 2
Fore
SplineSet
0 540 m 5,0,-1
 0 -408 l 1,1,-1
 2023 -408 l 1,2,-1
 2023 540 l 5,3,-1
 0 540 l 5,0,-1
EndSplineSet
EndChar

StartChar: four
Encoding: 52 52 23
Width: 2020
GlyphClass: 1
Flags: W
LayerCount: 2
Fore
SplineSet
0 1635 m 1,0,-1
 0 552 l 5,1,-1
 2020 558 l 5,2,-1
 2020 1635 l 1,3,-1
 0 1635 l 1,0,-1
0 74 m 1,4,-1
 0 -409 l 1,5,-1
 2023 -409 l 1,6,-1
 2023 71 l 1,7,-1
 0 74 l 1,4,-1
EndSplineSet
EndChar

StartChar: five
Encoding: 53 53 24
Width: 2023
GlyphClass: 1
Flags: W
LayerCount: 2
Fore
SplineSet
0 86 m 1,0,-1
 0 -408 l 1,1,-1
 2023 -408 l 1,2,-1
 2023 86 l 1,3,-1
 0 86 l 1,0,-1
0 1119 m 1,4,-1
 0 567 l 5,5,-1
 2023 567 l 5,6,-1
 2023 1119 l 1,7,-1
 0 1119 l 1,4,-1
EndSplineSet
EndChar

StartChar: six
Encoding: 54 54 25
Width: 2023
GlyphClass: 1
Flags: W
LayerCount: 2
Fore
SplineSet
0 86 m 1,0,-1
 0 -408 l 1,1,-1
 2023 -408 l 1,2,-1
 2023 86 l 1,3,-1
 0 86 l 1,0,-1
3 1641 m 1,4,-1
 0 1101 l 5,5,-1
 2023 1101 l 5,6,-1
 2026 1641 l 1,7,-1
 3 1641 l 1,4,-1
EndSplineSet
EndChar

StartChar: seven
Encoding: 55 55 26
Width: 2023
GlyphClass: 1
Flags: W
LayerCount: 2
Fore
SplineSet
0 86 m 1,0,-1
 0 -408 l 1,1,-1
 2023 -408 l 1,2,-1
 2023 86 l 1,3,-1
 0 86 l 1,0,-1
EndSplineSet
EndChar

StartChar: eight
Encoding: 56 56 27
Width: 2023
GlyphClass: 1
Flags: W
LayerCount: 2
Fore
SplineSet
3 1641 m 1,0,-1
 -3 72 l 5,1,-1
 2020 72 l 5,2,-1
 2026 1641 l 1,3,-1
 3 1641 l 1,0,-1
EndSplineSet
EndChar

StartChar: nine
Encoding: 57 57 28
Width: 2023
GlyphClass: 1
Flags: W
LayerCount: 2
Fore
SplineSet
-3 1059 m 1,0,-1
 -2 82 l 5,1,-1
 2021 82 l 5,2,-1
 2020 1059 l 1,3,-1
 -3 1059 l 1,0,-1
EndSplineSet
EndChar

StartChar: colon
Encoding: 58 58 29
Width: 2023
GlyphClass: 1
Flags: W
LayerCount: 2
Fore
SplineSet
0 605 m 5,0,-1
 -3 87 l 1,1,-1
 2020 87 l 1,2,-1
 2023 605 l 5,3,-1
 0 605 l 5,0,-1
-3 1641 m 1,4,-1
 -3 1089 l 1,5,-1
 2020 1089 l 1,6,-1
 2020 1641 l 1,7,-1
 -3 1641 l 1,4,-1
EndSplineSet
EndChar

StartChar: semicolon
Encoding: 59 59 30
Width: 2023
GlyphClass: 1
Flags: W
LayerCount: 2
Fore
SplineSet
0 584 m 5,0,-1
 -2 93 l 1,1,-1
 2021 93 l 1,2,-1
 2023 584 l 5,3,-1
 0 584 l 5,0,-1
EndSplineSet
EndChar

StartChar: less
Encoding: 60 60 31
Width: 2023
GlyphClass: 1
Flags: W
LayerCount: 2
Fore
SplineSet
0 1638 m 1,0,-1
 6 576 l 1,1,-1
 2029 576 l 1,2,-1
 2023 1638 l 1,3,-1
 0 1638 l 1,0,-1
EndSplineSet
EndChar

StartChar: equal
Encoding: 61 61 32
Width: 2023
GlyphClass: 1
Flags: W
LayerCount: 2
Fore
SplineSet
1 1111 m 1,0,-1
 0 588 l 5,1,-1
 2023 588 l 5,2,-1
 2024 1111 l 1,3,-1
 1 1111 l 1,0,-1
EndSplineSet
EndChar

StartChar: greater
Encoding: 62 62 33
Width: 2023
GlyphClass: 1
Flags: W
LayerCount: 2
Fore
SplineSet
3 1641 m 1,0,-1
 0 1077 l 5,1,-1
 2023 1077 l 5,2,-1
 2026 1641 l 1,3,-1
 3 1641 l 1,0,-1
EndSplineSet
EndChar

StartChar: at
Encoding: 64 64 35
Width: 2023
GlyphClass: 1
Flags: W
LayerCount: 2
Fore
SplineSet
1268 1536 m 1,0,-1
 1268 1792 l 1,1,-1
 252 1792 l 1,2,-1
 252 1536 l 1,3,-1
 0 1536 l 1,4,-1
 0 512 l 1,5,-1
 252 512 l 1,6,-1
 252 256 l 1,7,-1
 1268 256 l 1,8,-1
 1268 514 l 1,9,-1
 260 514 l 1,10,-1
 260 1534 l 1,11,-1
 756 1534 l 1,12,-1
 756 1282 l 1,13,-1
 504 1282 l 1,14,-1
 504 766 l 1,15,-1
 1520 766 l 1,16,-1
 1520 1536 l 1,17,-1
 1268 1536 l 1,0,-1
1260 1534 m 1,18,-1
 1260 1282 l 1,19,-1
 1016 1282 l 1,20,-1
 1016 1534 l 1,21,-1
 1260 1534 l 1,18,-1
764 1026 m 1,22,-1
 764 1278 l 1,23,-1
 1008 1278 l 1,24,-1
 1008 1026 l 1,25,-1
 764 1026 l 1,22,-1
EndSplineSet
EndChar

StartChar: A
Encoding: 65 65 36
Width: 2023
GlyphClass: 1
Flags: W
LayerCount: 2
Fore
SplineSet
1268 1536 m 1,0,-1
 1268 1792 l 1,1,-1
 252 1792 l 1,2,-1
 252 1536 l 1,3,-1
 0 1536 l 1,4,-1
 0 256 l 1,5,-1
 260 256 l 1,6,-1
 260 766 l 1,7,-1
 1260 766 l 1,8,-1
 1260 256 l 1,9,-1
 1520 256 l 1,10,-1
 1520 1536 l 1,11,-1
 1268 1536 l 1,0,-1
1260 1026 m 1,12,-1
 260 1026 l 1,13,-1
 260 1534 l 1,14,-1
 1260 1534 l 1,15,-1
 1260 1026 l 1,12,-1
EndSplineSet
EndChar

StartChar: B
Encoding: 66 66 37
Width: 2023
GlyphClass: 1
Flags: W
LayerCount: 2
Fore
SplineSet
1520 1278 m 1,0,-1
 1520 1536 l 1,1,-1
 1268 1536 l 1,2,-1
 1268 1792 l 1,3,-1
 0 1792 l 1,4,-1
 0 256 l 1,5,-1
 1268 256 l 1,6,-1
 1268 512 l 1,7,-1
 1520 512 l 1,8,-1
 1520 1026 l 1,9,-1
 1268 1026 l 1,10,-1
 1268 1278 l 1,11,-1
 1520 1278 l 1,0,-1
1260 1534 m 1,12,-1
 1260 1282 l 1,13,-1
 260 1282 l 1,14,-1
 260 1534 l 1,15,-1
 1260 1534 l 1,12,-1
1260 514 m 1,16,-1
 260 514 l 1,17,-1
 260 1022 l 1,18,-1
 1260 1022 l 1,19,-1
 1260 514 l 1,16,-1
EndSplineSet
EndChar

StartChar: C
Encoding: 67 67 38
Width: 2023
GlyphClass: 1
Flags: W
LayerCount: 2
Fore
SplineSet
1520 1278 m 1,0,-1
 1520 1536 l 1,1,-1
 1268 1536 l 1,2,-1
 1268 1792 l 1,3,-1
 252 1792 l 1,4,-1
 252 1536 l 1,5,-1
 0 1536 l 1,6,-1
 0 512 l 1,7,-1
 252 512 l 1,8,-1
 252 256 l 1,9,-1
 1268 256 l 1,10,-1
 1268 512 l 1,11,-1
 1520 512 l 1,12,-1
 1520 770 l 1,13,-1
 1260 770 l 1,14,-1
 1260 514 l 1,15,-1
 260 514 l 1,16,-1
 260 1534 l 1,17,-1
 1260 1534 l 1,18,-1
 1260 1278 l 1,19,-1
 1520 1278 l 1,0,-1
EndSplineSet
EndChar

StartChar: D
Encoding: 68 68 39
Width: 2023
GlyphClass: 1
Flags: W
LayerCount: 2
Fore
SplineSet
1268 1282 m 1,0,-1
 1268 1536 l 1,1,-1
 1016 1536 l 1,2,-1
 1016 1792 l 1,3,-1
 0 1792 l 1,4,-1
 0 256 l 1,5,-1
 1016 256 l 1,6,-1
 1016 512 l 1,7,-1
 1268 512 l 1,8,-1
 1268 766 l 1,9,-1
 1520 766 l 1,10,-1
 1520 1282 l 1,11,-1
 1268 1282 l 1,0,-1
1260 770 m 1,12,-1
 1008 770 l 1,13,-1
 1008 514 l 1,14,-1
 260 514 l 1,15,-1
 260 1534 l 1,16,-1
 1008 1534 l 1,17,-1
 1008 1278 l 1,18,-1
 1260 1278 l 1,19,-1
 1260 770 l 1,12,-1
EndSplineSet
EndChar

StartChar: E
Encoding: 69 69 40
Width: 2023
GlyphClass: 1
Flags: W
LayerCount: 2
Fore
SplineSet
1520 1534 m 1,0,-1
 1520 1792 l 1,1,-1
 0 1792 l 1,2,-1
 0 256 l 1,3,-1
 1520 256 l 1,4,-1
 1520 514 l 1,5,-1
 260 514 l 1,6,-1
 260 1022 l 1,7,-1
 1268 1022 l 1,8,-1
 1268 1282 l 1,9,-1
 260 1282 l 1,10,-1
 260 1534 l 1,11,-1
 1520 1534 l 1,0,-1
EndSplineSet
EndChar

StartChar: G
Encoding: 71 71 42
Width: 2023
GlyphClass: 1
Flags: W
LayerCount: 2
Fore
SplineSet
1520 1278 m 1,0,-1
 1520 1536 l 1,1,-1
 1268 1536 l 1,2,-1
 1268 1792 l 1,3,-1
 252 1792 l 1,4,-1
 252 1536 l 1,5,-1
 0 1536 l 1,6,-1
 0 512 l 1,7,-1
 252 512 l 1,8,-1
 252 256 l 1,9,-1
 1268 256 l 1,10,-1
 1268 512 l 1,11,-1
 1520 512 l 1,12,-1
 1520 1026 l 1,13,-1
 756 1026 l 1,14,-1
 756 766 l 1,15,-1
 1260 766 l 1,16,-1
 1260 514 l 1,17,-1
 260 514 l 1,18,-1
 260 1534 l 1,19,-1
 1260 1534 l 1,20,-1
 1260 1278 l 1,21,-1
 1520 1278 l 1,0,-1
EndSplineSet
EndChar

StartChar: H
Encoding: 72 72 43
Width: 2023
GlyphClass: 1
Flags: W
LayerCount: 2
Fore
SplineSet
1260 1792 m 1,0,-1
 1260 1282 l 1,1,-1
 260 1282 l 1,2,-1
 260 1792 l 1,3,-1
 0 1792 l 1,4,-1
 0 256 l 1,5,-1
 260 256 l 1,6,-1
 260 1022 l 1,7,-1
 1260 1022 l 1,8,-1
 1260 256 l 1,9,-1
 1520 256 l 1,10,-1
 1520 1792 l 1,11,-1
 1260 1792 l 1,0,-1
EndSplineSet
EndChar

StartChar: I
Encoding: 73 73 44
Width: 2023
GlyphClass: 1
Flags: W
LayerCount: 2
Fore
SplineSet
1016 1534 m 1,0,-1
 1520 1534 l 1,1,-1
 1520 1792 l 1,2,-1
 252 1792 l 1,3,-1
 252 1534 l 1,4,-1
 756 1534 l 1,5,-1
 756 514 l 1,6,-1
 252 514 l 1,7,-1
 252 256 l 1,8,-1
 1520 256 l 1,9,-1
 1520 514 l 1,10,-1
 1016 514 l 1,11,-1
 1016 1534 l 1,0,-1
EndSplineSet
EndChar

StartChar: J
Encoding: 74 74 45
Width: 2023
GlyphClass: 1
Flags: W
LayerCount: 2
Fore
SplineSet
1260 1792 m 1,0,-1
 1260 514 l 1,1,-1
 260 514 l 1,2,-1
 260 1026 l 1,3,-1
 0 1026 l 1,4,-1
 0 512 l 1,5,-1
 252 512 l 1,6,-1
 252 256 l 1,7,-1
 1268 256 l 1,8,-1
 1268 512 l 1,9,-1
 1520 512 l 1,10,-1
 1520 1792 l 1,11,-1
 1260 1792 l 1,0,-1
EndSplineSet
EndChar

StartChar: K
Encoding: 75 75 46
Width: 2023
GlyphClass: 1
Flags: W
LayerCount: 2
Fore
SplineSet
1268 514 m 1,0,-1
 1268 770 l 1,1,-1
 1016 770 l 1,2,-1
 1016 1026 l 1,3,-1
 764 1026 l 1,4,-1
 764 1278 l 1,5,-1
 1016 1278 l 1,6,-1
 1016 1534 l 1,7,-1
 1268 1534 l 1,8,-1
 1268 1792 l 1,9,-1
 1008 1792 l 1,10,-1
 1008 1536 l 1,11,-1
 756 1536 l 1,12,-1
 756 1282 l 1,13,-1
 260 1282 l 1,14,-1
 260 1792 l 1,15,-1
 0 1792 l 1,16,-1
 0 256 l 1,17,-1
 260 256 l 1,18,-1
 260 1022 l 1,19,-1
 756 1022 l 1,20,-1
 756 766 l 1,21,-1
 1008 766 l 1,22,-1
 1008 512 l 1,23,-1
 1260 512 l 1,24,-1
 1260 256 l 1,25,-1
 1520 256 l 1,26,-1
 1520 514 l 1,27,-1
 1268 514 l 1,0,-1
EndSplineSet
EndChar

StartChar: L
Encoding: 76 76 47
Width: 2023
GlyphClass: 1
Flags: W
LayerCount: 2
Fore
SplineSet
260 514 m 1,0,-1
 260 1792 l 1,1,-1
 0 1792 l 1,2,-1
 0 256 l 1,3,-1
 1520 256 l 1,4,-1
 1520 514 l 1,5,-1
 260 514 l 1,0,-1
EndSplineSet
EndChar

StartChar: M
Encoding: 77 77 48
Width: 2023
GlyphClass: 1
Flags: W
LayerCount: 2
Fore
SplineSet
1260 1792 m 1,0,-1
 1260 1536 l 1,1,-1
 1008 1536 l 1,2,-1
 1008 1282 l 1,3,-1
 512 1282 l 1,4,-1
 512 1536 l 1,5,-1
 260 1536 l 1,6,-1
 260 1792 l 1,7,-1
 0 1792 l 1,8,-1
 0 256 l 1,9,-1
 260 256 l 1,10,-1
 260 1278 l 1,11,-1
 504 1278 l 1,12,-1
 504 1022 l 1,13,-1
 1016 1022 l 1,14,-1
 1016 1278 l 1,15,-1
 1260 1278 l 1,16,-1
 1260 256 l 1,17,-1
 1520 256 l 1,18,-1
 1520 1792 l 1,19,-1
 1260 1792 l 1,0,-1
EndSplineSet
EndChar

StartChar: N
Encoding: 78 78 49
Width: 2023
GlyphClass: 1
Flags: W
LayerCount: 2
Fore
SplineSet
1260 1792 m 1,0,-1
 1260 770 l 1,1,-1
 1016 770 l 1,2,-1
 1016 1026 l 1,3,-1
 764 1026 l 1,4,-1
 764 1282 l 1,5,-1
 512 1282 l 1,6,-1
 512 1536 l 1,7,-1
 260 1536 l 1,8,-1
 260 1792 l 1,9,-1
 0 1792 l 1,10,-1
 0 256 l 1,11,-1
 260 256 l 1,12,-1
 260 1278 l 1,13,-1
 504 1278 l 1,14,-1
 504 1022 l 1,15,-1
 756 1022 l 1,16,-1
 756 766 l 1,17,-1
 1008 766 l 1,18,-1
 1008 512 l 1,19,-1
 1260 512 l 1,20,-1
 1260 256 l 1,21,-1
 1520 256 l 1,22,-1
 1520 1792 l 1,23,-1
 1260 1792 l 1,0,-1
EndSplineSet
EndChar

StartChar: O
Encoding: 79 79 50
Width: 2023
GlyphClass: 1
Flags: W
LayerCount: 2
Fore
SplineSet
1268 1536 m 1,0,-1
 1268 1792 l 1,1,-1
 252 1792 l 1,2,-1
 252 1536 l 1,3,-1
 0 1536 l 1,4,-1
 0 512 l 1,5,-1
 252 512 l 1,6,-1
 252 256 l 1,7,-1
 1268 256 l 1,8,-1
 1268 512 l 1,9,-1
 1520 512 l 1,10,-1
 1520 1536 l 1,11,-1
 1268 1536 l 1,0,-1
1260 514 m 1,12,-1
 260 514 l 1,13,-1
 260 1534 l 1,14,-1
 1260 1534 l 1,15,-1
 1260 514 l 1,12,-1
EndSplineSet
EndChar

StartChar: P
Encoding: 80 80 51
Width: 2023
GlyphClass: 1
Flags: W
LayerCount: 2
Fore
SplineSet
1268 1536 m 1,0,-1
 1268 1792 l 1,1,-1
 0 1792 l 1,2,-1
 0 256 l 1,3,-1
 260 256 l 1,4,-1
 260 766 l 1,5,-1
 1268 766 l 1,6,-1
 1268 1022 l 1,7,-1
 1520 1022 l 1,8,-1
 1520 1536 l 1,9,-1
 1268 1536 l 1,0,-1
1260 1026 m 1,10,-1
 260 1026 l 1,11,-1
 260 1534 l 1,12,-1
 1260 1534 l 1,13,-1
 1260 1026 l 1,10,-1
EndSplineSet
EndChar

StartChar: Q
Encoding: 81 81 52
Width: 2023
GlyphClass: 1
Flags: W
LayerCount: 2
Fore
SplineSet
1268 1536 m 1,0,-1
 1268 1792 l 1,1,-1
 252 1792 l 1,2,-1
 252 1536 l 1,3,-1
 0 1536 l 1,4,-1
 0 512 l 1,5,-1
 252 512 l 1,6,-1
 252 256 l 1,7,-1
 1268 256 l 1,8,-1
 1268 512 l 1,9,-1
 1520 512 l 1,10,-1
 1520 1536 l 1,11,-1
 1268 1536 l 1,0,-1
1260 514 m 1,12,-1
 1016 514 l 1,13,-1
 1016 770 l 1,14,-1
 764 770 l 1,15,-1
 764 1026 l 1,16,-1
 504 1026 l 1,17,-1
 504 766 l 1,18,-1
 756 766 l 1,19,-1
 756 514 l 1,20,-1
 260 514 l 1,21,-1
 260 1534 l 1,22,-1
 1260 1534 l 1,23,-1
 1260 514 l 1,12,-1
EndSplineSet
EndChar

StartChar: R
Encoding: 82 82 53
Width: 2023
GlyphClass: 1
Flags: W
LayerCount: 2
Fore
SplineSet
1268 1536 m 1,0,-1
 1268 1792 l 1,1,-1
 0 1792 l 1,2,-1
 0 256 l 1,3,-1
 260 256 l 1,4,-1
 260 766 l 1,5,-1
 1008 766 l 1,6,-1
 1008 512 l 1,7,-1
 1260 512 l 1,8,-1
 1260 256 l 1,9,-1
 1520 256 l 1,10,-1
 1520 514 l 1,11,-1
 1268 514 l 1,12,-1
 1268 1022 l 1,13,-1
 1520 1022 l 1,14,-1
 1520 1536 l 1,15,-1
 1268 1536 l 1,0,-1
1260 1026 m 1,16,-1
 260 1026 l 1,17,-1
 260 1534 l 1,18,-1
 1260 1534 l 1,19,-1
 1260 1026 l 1,16,-1
EndSplineSet
EndChar

StartChar: S
Encoding: 83 83 54
Width: 2023
GlyphClass: 1
Flags: W
LayerCount: 2
Fore
SplineSet
1268 1026 m 1,0,-1
 1268 1282 l 1,1,-1
 260 1282 l 1,2,-1
 260 1534 l 1,3,-1
 1268 1534 l 1,4,-1
 1268 1792 l 1,5,-1
 252 1792 l 1,6,-1
 252 1536 l 1,7,-1
 0 1536 l 1,8,-1
 0 1278 l 1,9,-1
 252 1278 l 1,10,-1
 252 1022 l 1,11,-1
 1260 1022 l 1,12,-1
 1260 514 l 1,13,-1
 260 514 l 1,14,-1
 260 770 l 1,15,-1
 0 770 l 1,16,-1
 0 512 l 1,17,-1
 252 512 l 1,18,-1
 252 256 l 1,19,-1
 1268 256 l 1,20,-1
 1268 512 l 1,21,-1
 1520 512 l 1,22,-1
 1520 1026 l 1,23,-1
 1268 1026 l 1,0,-1
EndSplineSet
EndChar

StartChar: T
Encoding: 84 84 55
Width: 2023
GlyphClass: 1
Flags: W
LayerCount: 2
Fore
SplineSet
0 1792 m 1,0,-1
 0 1534 l 1,1,-1
 756 1534 l 1,2,-1
 756 256 l 1,3,-1
 1016 256 l 1,4,-1
 1016 1534 l 1,5,-1
 1772 1534 l 1,6,-1
 1772 1792 l 1,7,-1
 0 1792 l 1,0,-1
EndSplineSet
EndChar

StartChar: U
Encoding: 85 85 56
Width: 2023
GlyphClass: 1
Flags: W
LayerCount: 2
Fore
SplineSet
1260 1792 m 1,0,-1
 1260 514 l 1,1,-1
 260 514 l 1,2,-1
 260 1792 l 1,3,-1
 0 1792 l 1,4,-1
 0 512 l 1,5,-1
 252 512 l 1,6,-1
 252 256 l 1,7,-1
 1268 256 l 1,8,-1
 1268 512 l 1,9,-1
 1520 512 l 1,10,-1
 1520 1792 l 1,11,-1
 1260 1792 l 1,0,-1
EndSplineSet
EndChar

StartChar: V
Encoding: 86 86 57
Width: 2023
GlyphClass: 1
Flags: W
LayerCount: 2
Fore
SplineSet
1260 1792 m 1,0,-1
 1260 770 l 1,1,-1
 1008 770 l 1,2,-1
 1008 514 l 1,3,-1
 512 514 l 1,4,-1
 512 770 l 1,5,-1
 260 770 l 1,6,-1
 260 1792 l 1,7,-1
 0 1792 l 1,8,-1
 0 766 l 1,9,-1
 252 766 l 1,10,-1
 252 512 l 1,11,-1
 504 512 l 1,12,-1
 504 256 l 1,13,-1
 1016 256 l 1,14,-1
 1016 512 l 1,15,-1
 1268 512 l 1,16,-1
 1268 766 l 1,17,-1
 1520 766 l 1,18,-1
 1520 1792 l 1,19,-1
 1260 1792 l 1,0,-1
EndSplineSet
EndChar

StartChar: W
Encoding: 87 87 58
Width: 2023
GlyphClass: 1
Flags: W
LayerCount: 2
Fore
SplineSet
1260 1792 m 1,0,-1
 1260 514 l 1,1,-1
 1016 514 l 1,2,-1
 1016 770 l 1,3,-1
 504 770 l 1,4,-1
 504 514 l 1,5,-1
 260 514 l 1,6,-1
 260 1792 l 1,7,-1
 0 1792 l 1,8,-1
 0 512 l 1,9,-1
 252 512 l 1,10,-1
 252 256 l 1,11,-1
 512 256 l 1,12,-1
 512 512 l 1,13,-1
 1008 512 l 1,14,-1
 1008 256 l 1,15,-1
 1268 256 l 1,16,-1
 1268 512 l 1,17,-1
 1520 512 l 1,18,-1
 1520 1792 l 1,19,-1
 1260 1792 l 1,0,-1
EndSplineSet
EndChar

StartChar: X
Encoding: 88 88 59
Width: 2023
GlyphClass: 1
Flags: W
LayerCount: 2
Fore
SplineSet
1016 1278 m 1,0,-1
 1268 1278 l 1,1,-1
 1268 1534 l 1,2,-1
 1520 1534 l 1,3,-1
 1520 1792 l 1,4,-1
 1260 1792 l 1,5,-1
 1260 1536 l 1,6,-1
 1008 1536 l 1,7,-1
 1008 1282 l 1,8,-1
 512 1282 l 1,9,-1
 512 1536 l 1,10,-1
 260 1536 l 1,11,-1
 260 1792 l 1,12,-1
 0 1792 l 1,13,-1
 0 1534 l 1,14,-1
 252 1534 l 1,15,-1
 252 1278 l 1,16,-1
 504 1278 l 1,17,-1
 504 770 l 1,18,-1
 252 770 l 1,19,-1
 252 514 l 1,20,-1
 0 514 l 1,21,-1
 0 256 l 1,22,-1
 260 256 l 1,23,-1
 260 512 l 1,24,-1
 512 512 l 1,25,-1
 512 766 l 1,26,-1
 1008 766 l 1,27,-1
 1008 512 l 1,28,-1
 1260 512 l 1,29,-1
 1260 256 l 1,30,-1
 1520 256 l 1,31,-1
 1520 514 l 1,32,-1
 1268 514 l 1,33,-1
 1268 770 l 1,34,-1
 1016 770 l 1,35,-1
 1016 1278 l 1,0,-1
EndSplineSet
EndChar

StartChar: Y
Encoding: 89 89 60
Width: 2023
GlyphClass: 1
Flags: W
LayerCount: 2
Fore
SplineSet
1772 1792 m 1,0,-1
 1511 1792 l 1,1,-1
 1511 1536 l 1,2,-1
 1260 1536 l 1,3,-1
 1260 1282 l 1,4,-1
 1008 1282 l 1,5,-1
 1008 1026 l 1,6,-1
 764 1026 l 1,7,-1
 764 1282 l 1,8,-1
 512 1282 l 1,9,-1
 512 1536 l 1,10,-1
 260 1536 l 1,11,-1
 260 1792 l 1,12,-1
 0 1792 l 1,13,-1
 0 1534 l 1,14,-1
 252 1534 l 1,15,-1
 252 1278 l 1,16,-1
 504 1278 l 1,17,-1
 504 1022 l 1,18,-1
 756 1022 l 1,19,-1
 756 256 l 1,20,-1
 1016 256 l 1,21,-1
 1016 1022 l 1,22,-1
 1268 1022 l 1,23,-1
 1268 1278 l 1,24,-1
 1520 1278 l 1,25,-1
 1520 1534 l 1,26,-1
 1772 1534 l 1,27,-1
 1772 1792 l 1,0,-1
EndSplineSet
EndChar

StartChar: Z
Encoding: 90 90 61
Width: 2023
GlyphClass: 1
Flags: W
LayerCount: 2
Fore
SplineSet
764 766 m 1,0,-1
 764 1022 l 1,1,-1
 1016 1022 l 1,2,-1
 1016 1278 l 1,3,-1
 1268 1278 l 1,4,-1
 1268 1534 l 1,5,-1
 1520 1534 l 1,6,-1
 1520 1792 l 1,7,-1
 0 1792 l 1,8,-1
 0 1534 l 1,9,-1
 1008 1534 l 1,10,-1
 1008 1282 l 1,11,-1
 756 1282 l 1,12,-1
 756 1026 l 1,13,-1
 504 1026 l 1,14,-1
 504 770 l 1,15,-1
 252 770 l 1,16,-1
 252 514 l 1,17,-1
 0 514 l 1,18,-1
 0 256 l 1,19,-1
 1520 256 l 1,20,-1
 1520 514 l 1,21,-1
 512 514 l 1,22,-1
 512 766 l 1,23,-1
 764 766 l 1,0,-1
EndSplineSet
EndChar

StartChar: bracketleft
Encoding: 91 91 62
Width: 2023
GlyphClass: 1
Flags: W
LayerCount: 2
Fore
SplineSet
1032 1534 m 1,0,-1
 1536 1534 l 1,1,-1
 1536 1792 l 1,2,-1
 772 1792 l 1,3,-1
 772 256 l 1,4,-1
 1536 256 l 1,5,-1
 1536 514 l 1,6,-1
 1032 514 l 1,7,-1
 1032 1534 l 1,0,-1
EndSplineSet
EndChar

StartChar: backslash
Encoding: 92 92 63
Width: 2023
GlyphClass: 1
Flags: W
LayerCount: 2
Fore
SplineSet
1278 514 m 1,0,-1
 1278 770 l 1,1,-1
 1026 770 l 1,2,-1
 1026 1026 l 1,3,-1
 774 1026 l 1,4,-1
 774 1282 l 1,5,-1
 522 1282 l 1,6,-1
 522 1536 l 1,7,-1
 264 1536 l 1,8,-1
 264 1278 l 1,9,-1
 516 1278 l 1,10,-1
 516 1022 l 1,11,-1
 768 1022 l 1,12,-1
 768 766 l 1,13,-1
 1020 766 l 1,14,-1
 1020 512 l 1,15,-1
 1272 512 l 1,16,-1
 1272 256 l 1,17,-1
 1530 256 l 1,18,-1
 1530 514 l 1,19,-1
 1278 514 l 1,0,-1
EndSplineSet
EndChar

StartChar: bracketright
Encoding: 93 93 64
Width: 2023
GlyphClass: 1
Flags: W
LayerCount: 2
Fore
SplineSet
252 1792 m 1,0,-1
 252 1534 l 1,1,-1
 756 1534 l 1,2,-1
 756 514 l 1,3,-1
 252 514 l 1,4,-1
 252 256 l 1,5,-1
 1016 256 l 1,6,-1
 1016 1792 l 1,7,-1
 252 1792 l 1,0,-1
EndSplineSet
EndChar

StartChar: asciicircum
Encoding: 94 94 65
Width: 2023
GlyphClass: 1
Flags: W
LayerCount: 2
Fore
SplineSet
1268 1282 m 1,0,-1
 1268 1536 l 1,1,-1
 1016 1536 l 1,2,-1
 1016 1792 l 1,3,-1
 756 1792 l 1,4,-1
 756 1536 l 1,5,-1
 504 1536 l 1,6,-1
 504 1282 l 1,7,-1
 252 1282 l 1,8,-1
 252 1022 l 1,9,-1
 512 1022 l 1,10,-1
 512 1278 l 1,11,-1
 756 1278 l 1,12,-1
 756 256 l 1,13,-1
 1016 256 l 1,14,-1
 1016 1278 l 1,15,-1
 1260 1278 l 1,16,-1
 1260 1022 l 1,17,-1
 1520 1022 l 1,18,-1
 1520 1282 l 1,19,-1
 1268 1282 l 1,0,-1
EndSplineSet
EndChar

StartChar: underscore
Encoding: 95 95 66
Width: 2023
GlyphClass: 1
Flags: W
LayerCount: 2
Fore
SplineSet
0 260 m 1,0,-1
 0 0 l 1,1,-1
 2023 0 l 1,2,-1
 2023 260 l 1,3,-1
 0 260 l 1,0,-1
EndSplineSet
EndChar

StartChar: a
Encoding: 97 97 67
Width: 2023
GlyphClass: 1
Flags: W
LayerCount: 2
Fore
SplineSet
1016 1282 m 1,0,-1
 1016 1536 l 1,1,-1
 252 1536 l 1,2,-1
 252 1278 l 1,3,-1
 1008 1278 l 1,4,-1
 1008 1026 l 1,5,-1
 252 1026 l 1,6,-1
 252 770 l 1,7,-1
 0 770 l 1,8,-1
 0 512 l 1,9,-1
 252 512 l 1,10,-1
 252 256 l 1,11,-1
 1268 256 l 1,12,-1
 1268 1282 l 1,13,-1
 1016 1282 l 1,0,-1
260 514 m 1,14,-1
 260 766 l 1,15,-1
 1008 766 l 1,16,-1
 1008 514 l 1,17,-1
 260 514 l 1,14,-1
EndSplineSet
EndChar

StartChar: b
Encoding: 98 98 68
Width: 2023
GlyphClass: 1
Flags: W
LayerCount: 2
Fore
SplineSet
1284 1026 m 1,0,-1
 1284 1282 l 1,1,-1
 528 1282 l 1,2,-1
 528 1792 l 1,3,-1
 268 1792 l 1,4,-1
 268 256 l 1,5,-1
 1284 256 l 1,6,-1
 1284 512 l 1,7,-1
 1536 512 l 1,8,-1
 1536 1026 l 1,9,-1
 1284 1026 l 1,0,-1
1276 514 m 1,10,-1
 528 514 l 1,11,-1
 528 1022 l 1,12,-1
 1276 1022 l 1,13,-1
 1276 514 l 1,10,-1
EndSplineSet
EndChar

StartChar: c
Encoding: 99 99 69
Width: 2023
GlyphClass: 1
Flags: W
LayerCount: 2
Fore
SplineSet
512 1278 m 1,0,-1
 1268 1278 l 1,1,-1
 1268 1536 l 1,2,-1
 504 1536 l 1,3,-1
 504 1282 l 1,4,-1
 252 1282 l 1,5,-1
 252 512 l 1,6,-1
 504 512 l 1,7,-1
 504 256 l 1,8,-1
 1268 256 l 1,9,-1
 1268 514 l 1,10,-1
 512 514 l 1,11,-1
 512 1278 l 1,0,-1
EndSplineSet
EndChar

StartChar: d
Encoding: 100 100 70
Width: 2023
GlyphClass: 1
Flags: W
LayerCount: 2
Fore
SplineSet
1008 1792 m 1,0,-1
 1008 1282 l 1,1,-1
 252 1282 l 1,2,-1
 252 1026 l 1,3,-1
 0 1026 l 1,4,-1
 0 512 l 1,5,-1
 252 512 l 1,6,-1
 252 256 l 1,7,-1
 1268 256 l 1,8,-1
 1268 1792 l 1,9,-1
 1008 1792 l 1,0,-1
1008 514 m 1,10,-1
 260 514 l 1,11,-1
 260 1022 l 1,12,-1
 1008 1022 l 1,13,-1
 1008 514 l 1,10,-1
EndSplineSet
EndChar

StartChar: e
Encoding: 101 101 71
Width: 2023
GlyphClass: 1
Flags: W
LayerCount: 2
Fore
SplineSet
1016 766 m 1,0,-1
 1016 1022 l 1,1,-1
 1268 1022 l 1,2,-1
 1268 1282 l 1,3,-1
 1016 1282 l 1,4,-1
 1016 1536 l 1,5,-1
 252 1536 l 1,6,-1
 252 1282 l 1,7,-1
 0 1282 l 1,8,-1
 0 512 l 1,9,-1
 252 512 l 1,10,-1
 252 256 l 1,11,-1
 1268 256 l 1,12,-1
 1268 514 l 1,13,-1
 260 514 l 1,14,-1
 260 766 l 1,15,-1
 1016 766 l 1,0,-1
1008 1278 m 1,16,-1
 1008 1026 l 1,17,-1
 260 1026 l 1,18,-1
 260 1278 l 1,19,-1
 1008 1278 l 1,16,-1
EndSplineSet
EndChar

StartChar: f
Encoding: 102 102 72
Width: 2023
GlyphClass: 1
Flags: W
LayerCount: 2
Fore
SplineSet
756 1792 m 1,0,-1
 756 1536 l 1,1,-1
 504 1536 l 1,2,-1
 504 256 l 1,3,-1
 764 256 l 1,4,-1
 764 1022 l 1,5,-1
 1016 1022 l 1,6,-1
 1016 1282 l 1,7,-1
 764 1282 l 1,8,-1
 764 1534 l 1,9,-1
 1268 1534 l 1,10,-1
 1268 1792 l 1,11,-1
 756 1792 l 1,0,-1
EndSplineSet
EndChar

StartChar: g
Encoding: 103 103 73
Width: 2023
GlyphClass: 1
Flags: W
LayerCount: 2
Fore
SplineSet
252 1536 m 1,0,-1
 252 1282 l 1,1,-1
 0 1282 l 1,2,-1
 0 766 l 1,3,-1
 252 766 l 1,4,-1
 252 512 l 1,5,-1
 1264 512 l 1,6,-1
 1264 260 l 1,7,-1
 252 260 l 1,8,-1
 252 0 l 1,9,-1
 1272 0 l 1,10,-1
 1272 256 l 1,11,-1
 1524 256 l 1,12,-1
 1524 1536 l 1,13,-1
 252 1536 l 1,0,-1
1264 770 m 1,14,-1
 260 770 l 1,15,-1
 260 1278 l 1,16,-1
 1264 1278 l 1,17,-1
 1264 770 l 1,14,-1
EndSplineSet
EndChar

StartChar: h
Encoding: 104 104 74
Width: 2023
GlyphClass: 1
Flags: W
LayerCount: 2
Fore
SplineSet
1016 1026 m 1,0,-1
 1016 1282 l 1,1,-1
 260 1282 l 1,2,-1
 260 1792 l 1,3,-1
 0 1792 l 1,4,-1
 0 256 l 1,5,-1
 260 256 l 1,6,-1
 260 1022 l 1,7,-1
 1008 1022 l 1,8,-1
 1008 256 l 1,9,-1
 1268 256 l 1,10,-1
 1268 1026 l 1,11,-1
 1016 1026 l 1,0,-1
EndSplineSet
EndChar

StartChar: i
Encoding: 105 105 75
Width: 2023
GlyphClass: 1
Flags: W
LayerCount: 2
Fore
SplineSet
764 1792 m 1,0,-1
 504 1792 l 1,1,-1
 504 1534 l 1,2,-1
 764 1534 l 1,3,-1
 764 1792 l 1,0,-1
764 514 m 1,4,-1
 764 1282 l 1,5,-1
 252 1282 l 1,6,-1
 252 1022 l 1,7,-1
 504 1022 l 1,8,-1
 504 514 l 1,9,-1
 252 514 l 1,10,-1
 252 256 l 1,11,-1
 1016 256 l 1,12,-1
 1016 514 l 1,13,-1
 764 514 l 1,4,-1
EndSplineSet
EndChar

StartChar: j
Encoding: 106 106 76
Width: 2023
GlyphClass: 1
Flags: W
LayerCount: 2
Fore
SplineSet
1008 1792 m 1,0,-1
 1008 1534 l 1,1,-1
 1268 1534 l 1,2,-1
 1268 1792 l 1,3,-1
 1008 1792 l 1,0,-1
1008 260 m 1,4,-1
 512 260 l 1,5,-1
 512 514 l 1,6,-1
 252 514 l 1,7,-1
 252 256 l 1,8,-1
 504 256 l 1,9,-1
 504 0 l 1,10,-1
 1016 0 l 1,11,-1
 1016 256 l 1,12,-1
 1268 256 l 1,13,-1
 1268 1282 l 1,14,-1
 1008 1282 l 1,15,-1
 1008 260 l 1,4,-1
EndSplineSet
EndChar

StartChar: k
Encoding: 107 107 77
Width: 2023
GlyphClass: 1
Flags: W
LayerCount: 2
Fore
SplineSet
1016 514 m 1,0,-1
 1016 770 l 1,1,-1
 764 770 l 1,2,-1
 764 1278 l 1,3,-1
 1016 1278 l 1,4,-1
 1016 1536 l 1,5,-1
 756 1536 l 1,6,-1
 756 1282 l 1,7,-1
 512 1282 l 1,8,-1
 512 1792 l 1,9,-1
 252 1792 l 1,10,-1
 252 256 l 1,11,-1
 512 256 l 1,12,-1
 512 766 l 1,13,-1
 756 766 l 1,14,-1
 756 512 l 1,15,-1
 1008 512 l 1,16,-1
 1008 256 l 1,17,-1
 1268 256 l 1,18,-1
 1268 514 l 1,19,-1
 1016 514 l 1,0,-1
EndSplineSet
EndChar

StartChar: l
Encoding: 108 108 78
Width: 2023
GlyphClass: 1
Flags: W
LayerCount: 2
Fore
SplineSet
764 514 m 1,0,-1
 764 1792 l 1,1,-1
 504 1792 l 1,2,-1
 504 512 l 1,3,-1
 756 512 l 1,4,-1
 756 256 l 1,5,-1
 1268 256 l 1,6,-1
 1268 514 l 1,7,-1
 764 514 l 1,0,-1
EndSplineSet
EndChar

StartChar: m
Encoding: 109 109 79
Width: 2023
GlyphClass: 1
Flags: W
LayerCount: 2
Fore
SplineSet
1016 1282 m 1,0,-1
 1016 1536 l 1,1,-1
 756 1536 l 1,2,-1
 756 1282 l 1,3,-1
 512 1282 l 1,4,-1
 512 1536 l 1,5,-1
 0 1536 l 1,6,-1
 0 256 l 1,7,-1
 260 256 l 1,8,-1
 260 1278 l 1,9,-1
 504 1278 l 1,10,-1
 504 256 l 1,11,-1
 764 256 l 1,12,-1
 764 1278 l 1,13,-1
 1008 1278 l 1,14,-1
 1008 256 l 1,15,-1
 1268 256 l 1,16,-1
 1268 1282 l 1,17,-1
 1016 1282 l 1,0,-1
EndSplineSet
EndChar

StartChar: n
Encoding: 110 110 80
Width: 2023
GlyphClass: 1
Flags: W
LayerCount: 2
Fore
SplineSet
1016 1282 m 1,0,-1
 1016 1536 l 1,1,-1
 0 1536 l 1,2,-1
 0 256 l 1,3,-1
 260 256 l 1,4,-1
 260 1278 l 1,5,-1
 1008 1278 l 1,6,-1
 1008 256 l 1,7,-1
 1268 256 l 1,8,-1
 1268 1282 l 1,9,-1
 1016 1282 l 1,0,-1
EndSplineSet
EndChar

StartChar: o
Encoding: 111 111 81
Width: 2023
GlyphClass: 1
Flags: W
LayerCount: 2
Fore
SplineSet
1016 1282 m 1,0,-1
 1016 1536 l 1,1,-1
 252 1536 l 1,2,-1
 252 1282 l 1,3,-1
 0 1282 l 1,4,-1
 0 512 l 1,5,-1
 252 512 l 1,6,-1
 252 256 l 1,7,-1
 1016 256 l 1,8,-1
 1016 512 l 1,9,-1
 1268 512 l 1,10,-1
 1268 1282 l 1,11,-1
 1016 1282 l 1,0,-1
1008 514 m 1,12,-1
 260 514 l 1,13,-1
 260 1278 l 1,14,-1
 1008 1278 l 1,15,-1
 1008 514 l 1,12,-1
EndSplineSet
EndChar

StartChar: p
Encoding: 112 112 82
Width: 2023
GlyphClass: 1
Flags: W
LayerCount: 2
Fore
SplineSet
1016 1282 m 1,0,-1
 1016 1536 l 1,1,-1
 0 1536 l 1,2,-1
 0 0 l 1,3,-1
 260 0 l 1,4,-1
 260 512 l 1,5,-1
 1016 512 l 1,6,-1
 1016 766 l 1,7,-1
 1268 766 l 1,8,-1
 1268 1282 l 1,9,-1
 1016 1282 l 1,0,-1
1008 770 m 1,10,-1
 260 770 l 1,11,-1
 260 1278 l 1,12,-1
 1008 1278 l 1,13,-1
 1008 770 l 1,10,-1
EndSplineSet
EndChar

StartChar: q
Encoding: 113 113 83
Width: 2023
GlyphClass: 1
Flags: W
LayerCount: 2
Fore
SplineSet
1268 260 m 1,0,-1
 1268 1536 l 1,1,-1
 252 1536 l 1,2,-1
 252 1282 l 1,3,-1
 0 1282 l 1,4,-1
 0 766 l 1,5,-1
 252 766 l 1,6,-1
 252 512 l 1,7,-1
 1008 512 l 1,8,-1
 1008 0 l 1,9,-1
 1520 0 l 1,10,-1
 1520 260 l 1,11,-1
 1268 260 l 1,0,-1
260 770 m 1,12,-1
 260 1278 l 1,13,-1
 1008 1278 l 1,14,-1
 1008 770 l 1,15,-1
 260 770 l 1,12,-1
EndSplineSet
EndChar

StartChar: r
Encoding: 114 114 84
Width: 2023
GlyphClass: 1
Flags: W
LayerCount: 2
Fore
SplineSet
504 1536 m 1,0,-1
 504 1282 l 1,1,-1
 252 1282 l 1,2,-1
 252 256 l 1,3,-1
 512 256 l 1,4,-1
 512 1278 l 1,5,-1
 1268 1278 l 1,6,-1
 1268 1536 l 1,7,-1
 504 1536 l 1,0,-1
EndSplineSet
EndChar

StartChar: s
Encoding: 115 115 85
Width: 2023
GlyphClass: 1
Flags: W
LayerCount: 2
Fore
SplineSet
1268 770 m 1,0,-1
 1016 770 l 1,1,-1
 1016 1026 l 1,2,-1
 260 1026 l 1,3,-1
 260 1278 l 1,4,-1
 1016 1278 l 1,5,-1
 1016 1536 l 1,6,-1
 252 1536 l 1,7,-1
 252 1282 l 1,8,-1
 0 1282 l 1,9,-1
 0 1022 l 1,10,-1
 252 1022 l 1,11,-1
 252 766 l 1,12,-1
 1008 766 l 1,13,-1
 1008 514 l 1,14,-1
 0 514 l 1,15,-1
 0 256 l 1,16,-1
 1016 256 l 1,17,-1
 1016 512 l 1,18,-1
 1268 512 l 1,19,-1
 1268 770 l 1,0,-1
EndSplineSet
EndChar

StartChar: t
Encoding: 116 116 86
Width: 2023
GlyphClass: 1
Flags: W
LayerCount: 2
Fore
SplineSet
1016 514 m 1,0,-1
 1016 1278 l 1,1,-1
 1268 1278 l 1,2,-1
 1268 1536 l 1,3,-1
 1016 1536 l 1,4,-1
 1016 1792 l 1,5,-1
 756 1792 l 1,6,-1
 756 1536 l 1,7,-1
 504 1536 l 1,8,-1
 504 1278 l 1,9,-1
 756 1278 l 1,10,-1
 756 512 l 1,11,-1
 1008 512 l 1,12,-1
 1008 256 l 1,13,-1
 1520 256 l 1,14,-1
 1520 514 l 1,15,-1
 1016 514 l 1,0,-1
EndSplineSet
EndChar

StartChar: u
Encoding: 117 117 87
Width: 2023
GlyphClass: 1
Flags: W
LayerCount: 2
Fore
SplineSet
1008 1536 m 1,0,-1
 1008 514 l 1,1,-1
 260 514 l 1,2,-1
 260 1536 l 1,3,-1
 0 1536 l 1,4,-1
 0 512 l 1,5,-1
 252 512 l 1,6,-1
 252 256 l 1,7,-1
 1016 256 l 1,8,-1
 1016 512 l 1,9,-1
 1268 512 l 1,10,-1
 1268 1536 l 1,11,-1
 1008 1536 l 1,0,-1
EndSplineSet
EndChar

StartChar: v
Encoding: 118 118 88
Width: 2023
GlyphClass: 1
Flags: W
LayerCount: 2
Fore
SplineSet
1008 1536 m 1,0,-1
 1008 1026 l 1,1,-1
 756 1026 l 1,2,-1
 756 514 l 1,3,-1
 512 514 l 1,4,-1
 512 1026 l 1,5,-1
 260 1026 l 1,6,-1
 260 1536 l 1,7,-1
 0 1536 l 1,8,-1
 0 1022 l 1,9,-1
 252 1022 l 1,10,-1
 252 512 l 1,11,-1
 504 512 l 1,12,-1
 504 256 l 1,13,-1
 764 256 l 1,14,-1
 764 512 l 1,15,-1
 1016 512 l 1,16,-1
 1016 1022 l 1,17,-1
 1268 1022 l 1,18,-1
 1268 1536 l 1,19,-1
 1008 1536 l 1,0,-1
EndSplineSet
EndChar

StartChar: w
Encoding: 119 119 89
Width: 2023
GlyphClass: 1
Flags: W
LayerCount: 2
Fore
SplineSet
1008 1536 m 1,0,-1
 1008 514 l 1,1,-1
 764 514 l 1,2,-1
 764 1282 l 1,3,-1
 504 1282 l 1,4,-1
 504 514 l 1,5,-1
 260 514 l 1,6,-1
 260 1536 l 1,7,-1
 0 1536 l 1,8,-1
 0 512 l 1,9,-1
 252 512 l 1,10,-1
 252 256 l 1,11,-1
 512 256 l 1,12,-1
 512 512 l 1,13,-1
 756 512 l 1,14,-1
 756 256 l 1,15,-1
 1016 256 l 1,16,-1
 1016 512 l 1,17,-1
 1268 512 l 1,18,-1
 1268 1536 l 1,19,-1
 1008 1536 l 1,0,-1
EndSplineSet
EndChar

StartChar: x
Encoding: 120 120 90
Width: 2124
GlyphClass: 1
Flags: W
LayerCount: 2
Fore
SplineSet
1016 1022 m 1,0,-1
 1016 1278 l 1,1,-1
 1268 1278 l 1,2,-1
 1268 1536 l 1,3,-1
 1008 1536 l 1,4,-1
 1008 1282 l 1,5,-1
 756 1282 l 1,6,-1
 756 1026 l 1,7,-1
 512 1026 l 1,8,-1
 512 1282 l 1,9,-1
 260 1282 l 1,10,-1
 260 1536 l 1,11,-1
 0 1536 l 1,12,-1
 0 1278 l 1,13,-1
 252 1278 l 1,14,-1
 252 1022 l 1,15,-1
 504 1022 l 1,16,-1
 504 770 l 1,17,-1
 252 770 l 1,18,-1
 252 514 l 1,19,-1
 0 514 l 1,20,-1
 0 256 l 1,21,-1
 260 256 l 1,22,-1
 260 512 l 1,23,-1
 512 512 l 1,24,-1
 512 766 l 1,25,-1
 756 766 l 1,26,-1
 756 512 l 1,27,-1
 1008 512 l 1,28,-1
 1008 256 l 1,29,-1
 1268 256 l 1,30,-1
 1268 514 l 1,31,-1
 1016 514 l 1,32,-1
 1016 770 l 1,33,-1
 764 770 l 1,34,-1
 764 1022 l 1,35,-1
 1016 1022 l 1,0,-1
EndSplineSet
EndChar

StartChar: y
Encoding: 121 121 91
Width: 2023
GlyphClass: 1
Flags: W
LayerCount: 2
Fore
SplineSet
1008 1536 m 1,0,-1
 1008 770 l 1,1,-1
 260 770 l 1,2,-1
 260 1536 l 1,3,-1
 0 1536 l 1,4,-1
 0 766 l 1,5,-1
 252 766 l 1,6,-1
 252 512 l 1,7,-1
 1008 512 l 1,8,-1
 1008 260 l 1,9,-1
 252 260 l 1,10,-1
 252 0 l 1,11,-1
 1016 0 l 1,12,-1
 1016 256 l 1,13,-1
 1268 256 l 1,14,-1
 1268 1536 l 1,15,-1
 1008 1536 l 1,0,-1
EndSplineSet
EndChar

StartChar: z
Encoding: 122 122 92
Width: 2023
GlyphClass: 1
Flags: W
LayerCount: 2
Fore
SplineSet
764 766 m 1,0,-1
 764 1022 l 1,1,-1
 1016 1022 l 1,2,-1
 1016 1278 l 1,3,-1
 1268 1278 l 1,4,-1
 1268 1536 l 1,5,-1
 0 1536 l 1,6,-1
 0 1278 l 1,7,-1
 756 1278 l 1,8,-1
 756 1026 l 1,9,-1
 504 1026 l 1,10,-1
 504 770 l 1,11,-1
 252 770 l 1,12,-1
 252 514 l 1,13,-1
 0 514 l 1,14,-1
 0 256 l 1,15,-1
 1268 256 l 1,16,-1
 1268 514 l 1,17,-1
 512 514 l 1,18,-1
 512 766 l 1,19,-1
 764 766 l 1,0,-1
EndSplineSet
EndChar

StartChar: braceleft
Encoding: 123 123 93
Width: 2023
GlyphClass: 1
Flags: W
LayerCount: 2
Fore
SplineSet
1016 1278 m 1,0,-1
 1016 1534 l 1,1,-1
 1520 1534 l 1,2,-1
 1520 1792 l 1,3,-1
 756 1792 l 1,4,-1
 756 1282 l 1,5,-1
 252 1282 l 1,6,-1
 252 1022 l 1,7,-1
 756 1022 l 1,8,-1
 756 256 l 1,9,-1
 1520 256 l 1,10,-1
 1520 514 l 1,11,-1
 1016 514 l 1,12,-1
 1016 1026 l 1,13,-1
 764 1026 l 1,14,-1
 764 1278 l 1,15,-1
 1016 1278 l 1,0,-1
EndSplineSet
EndChar

StartChar: bar
Encoding: 124 124 94
Width: 2023
GlyphClass: 1
Flags: W
LayerCount: 2
Fore
SplineSet
756 1792 m 1,0,-1
 756 256 l 1,1,-1
 1016 256 l 1,2,-1
 1016 1792 l 1,3,-1
 756 1792 l 1,0,-1
EndSplineSet
EndChar

StartChar: braceright
Encoding: 125 125 95
Width: 2023
GlyphClass: 1
Flags: W
LayerCount: 2
Fore
SplineSet
1028 1282 m 1,0,-1
 1028 1792 l 1,1,-1
 264 1792 l 1,2,-1
 264 1534 l 1,3,-1
 768 1534 l 1,4,-1
 768 1278 l 1,5,-1
 1020 1278 l 1,6,-1
 1020 1026 l 1,7,-1
 768 1026 l 1,8,-1
 768 514 l 1,9,-1
 264 514 l 1,10,-1
 264 256 l 1,11,-1
 1028 256 l 1,12,-1
 1028 1022 l 1,13,-1
 1532 1022 l 1,14,-1
 1532 1282 l 1,15,-1
 1028 1282 l 1,0,-1
EndSplineSet
EndChar

StartChar: asciitilde
Encoding: 126 126 96
Width: 2023
GlyphClass: 1
Flags: W
LayerCount: 2
Fore
SplineSet
1268 1792 m 1,0,-1
 1008 1792 l 1,1,-1
 1008 1536 l 1,2,-1
 764 1536 l 1,3,-1
 764 1792 l 1,4,-1
 504 1792 l 1,5,-1
 504 1536 l 1,6,-1
 252 1536 l 1,7,-1
 252 1278 l 1,8,-1
 512 1278 l 1,9,-1
 512 1534 l 1,10,-1
 756 1534 l 1,11,-1
 756 1278 l 1,12,-1
 1016 1278 l 1,13,-1
 1016 1534 l 1,14,-1
 1268 1534 l 1,15,-1
 1268 1792 l 1,0,-1
EndSplineSet
EndChar

StartChar: Aring
Encoding: 197 197 97
Width: 2023
GlyphClass: 1
Flags: W
LayerCount: 2
Fore
SplineSet
1008 2048 m 1,0,-1
 1008 1022 l 1,1,-1
 2023 1022 l 1,2,-1
 2023 2048 l 1,3,-1
 1008 2048 l 1,0,-1
EndSplineSet
EndChar

StartChar: Ccedilla
Encoding: 199 199 98
Width: 2023
GlyphClass: 1
Flags: W
LayerCount: 2
Fore
SplineSet
0 2048 m 1,0,-1
 0 1022 l 1,1,-1
 2023 1022 l 1,2,-1
 2023 2048 l 1,3,-1
 0 2048 l 1,0,-1
EndSplineSet
EndChar

StartChar: degree
Encoding: 176 176 99
Width: 2023
GlyphClass: 1
Flags: W
LayerCount: 2
Fore
SplineSet
1520 1278 m 1,0,-1
 1520 1536 l 1,1,-1
 1268 1536 l 1,2,-1
 1268 1792 l 1,3,-1
 252 1792 l 1,4,-1
 252 1536 l 1,5,-1
 0 1536 l 1,6,-1
 0 1278 l 1,7,-1
 252 1278 l 1,8,-1
 252 1026 l 1,9,-1
 0 1026 l 1,10,-1
 0 512 l 1,11,-1
 252 512 l 1,12,-1
 252 256 l 1,13,-1
 1268 256 l 1,14,-1
 1268 512 l 1,15,-1
 1520 512 l 1,16,-1
 1520 1026 l 1,17,-1
 1268 1026 l 1,18,-1
 1268 1278 l 1,19,-1
 1520 1278 l 1,0,-1
1260 1534 m 1,20,-1
 1260 1282 l 1,21,-1
 260 1282 l 1,22,-1
 260 1534 l 1,23,-1
 1260 1534 l 1,20,-1
1260 514 m 1,24,-1
 260 514 l 1,25,-1
 260 1022 l 1,26,-1
 1260 1022 l 1,27,-1
 1260 514 l 1,24,-1
0 2048 m 1,28,-1
 2023 2048 l 1,29,-1
 2023 0 l 1,30,-1
 0 0 l 1,31,-1
 0 2048 l 1,28,-1
EndSplineSet
EndChar

StartChar: sterling
Encoding: 163 163 100
Width: 2023
GlyphClass: 1
Flags: W
LayerCount: 2
Fore
SplineSet
1520 1278 m 1,0,-1
 1520 1536 l 1,1,-1
 1268 1536 l 1,2,-1
 1268 1792 l 1,3,-1
 504 1792 l 1,4,-1
 504 1536 l 1,5,-1
 252 1536 l 1,6,-1
 252 1282 l 1,7,-1
 0 1282 l 1,8,-1
 0 1022 l 1,9,-1
 252 1022 l 1,10,-1
 252 514 l 1,11,-1
 0 514 l 1,12,-1
 0 256 l 1,13,-1
 1520 256 l 1,14,-1
 1520 514 l 1,15,-1
 512 514 l 1,16,-1
 512 1022 l 1,17,-1
 1016 1022 l 1,18,-1
 1016 1282 l 1,19,-1
 512 1282 l 1,20,-1
 512 1534 l 1,21,-1
 1260 1534 l 1,22,-1
 1260 1278 l 1,23,-1
 1520 1278 l 1,0,-1
EndSplineSet
EndChar

StartChar: copyright
Encoding: 169 169 101
Width: 2023
GlyphClass: 1
Flags: W
LayerCount: 2
Fore
SplineSet
756 1536 m 1,0,-1
 756 1282 l 1,1,-1
 504 1282 l 1,2,-1
 504 766 l 1,3,-1
 756 766 l 1,4,-1
 756 512 l 1,5,-1
 1268 512 l 1,6,-1
 1268 770 l 1,7,-1
 764 770 l 1,8,-1
 764 1278 l 1,9,-1
 1268 1278 l 1,10,-1
 1268 1536 l 1,11,-1
 756 1536 l 1,0,-1
1772 1536 m 1,12,-1
 1772 1792 l 1,13,-1
 1520 1792 l 1,14,-1
 1520 2048 l 1,15,-1
 504 2048 l 1,16,-1
 504 1792 l 1,17,-1
 252 1792 l 1,18,-1
 252 1536 l 1,19,-1
 0 1536 l 1,20,-1
 0 512 l 1,21,-1
 252 512 l 1,22,-1
 252 256 l 1,23,-1
 504 256 l 1,24,-1
 504 0 l 1,25,-1
 1520 0 l 1,26,-1
 1520 256 l 1,27,-1
 1772 256 l 1,28,-1
 1772 512 l 1,29,-1
 2023 512 l 1,30,-1
 2023 1536 l 1,31,-1
 1772 1536 l 1,12,-1
1763 514 m 1,32,-1
 1511 514 l 1,33,-1
 1511 260 l 1,34,-1
 512 260 l 1,35,-1
 512 514 l 1,36,-1
 260 514 l 1,37,-1
 260 1534 l 1,38,-1
 512 1534 l 1,39,-1
 512 1788 l 1,40,-1
 1511 1788 l 1,41,-1
 1511 1534 l 1,42,-1
 1763 1534 l 1,43,-1
 1763 514 l 1,32,-1
EndSplineSet
EndChar

StartChar: Oslash
Encoding: 216 216 102
Width: 2023
GlyphClass: 1
Flags: W
LayerCount: 2
Fore
SplineSet
0 2048 m 1,0,-1
 0 0 l 1,1,-1
 2023 0 l 1,2,-1
 2023 2048 l 1,3,-1
 0 2048 l 1,0,-1
EndSplineSet
EndChar

StartChar: fraction
Encoding: 8260 8260 104
Width: 2023
GlyphClass: 1
Flags: W
LayerCount: 2
Fore
SplineSet
1016 514 m 1,0,-1
 1016 1792 l 1,1,-1
 504 1792 l 1,2,-1
 504 1536 l 1,3,-1
 252 1536 l 1,4,-1
 252 1278 l 1,5,-1
 512 1278 l 1,6,-1
 512 1534 l 1,7,-1
 756 1534 l 1,8,-1
 756 514 l 1,9,-1
 252 514 l 1,10,-1
 252 256 l 1,11,-1
 1520 256 l 1,12,-1
 1520 514 l 1,13,-1
 1016 514 l 1,0,-1
0 2048 m 1,14,-1
 2023 2048 l 1,15,-1
 2023 0 l 1,16,-1
 0 0 l 1,17,-1
 0 2048 l 1,14,-1
EndSplineSet
EndChar

StartChar: currency
Encoding: 164 164 105
Width: 2023
GlyphClass: 1
Flags: W
LayerCount: 2
Fore
SplineSet
1268 1536 m 1,0,-1
 1268 1792 l 1,1,-1
 252 1792 l 1,2,-1
 252 1536 l 1,3,-1
 0 1536 l 1,4,-1
 0 1278 l 1,5,-1
 260 1278 l 1,6,-1
 260 1534 l 1,7,-1
 1260 1534 l 1,8,-1
 1260 1026 l 1,9,-1
 252 1026 l 1,10,-1
 252 770 l 1,11,-1
 0 770 l 1,12,-1
 0 256 l 1,13,-1
 1520 256 l 1,14,-1
 1520 514 l 1,15,-1
 260 514 l 1,16,-1
 260 766 l 1,17,-1
 1268 766 l 1,18,-1
 1268 1022 l 1,19,-1
 1520 1022 l 1,20,-1
 1520 1536 l 1,21,-1
 1268 1536 l 1,0,-1
0 2048 m 1,22,-1
 2023 2048 l 1,23,-1
 2023 0 l 1,24,-1
 0 0 l 1,25,-1
 0 2048 l 1,22,-1
EndSplineSet
EndChar

StartChar: guilsinglleft
Encoding: 8249 8249 106
Width: 2023
GlyphClass: 1
Flags: W
LayerCount: 2
Fore
SplineSet
1520 1278 m 1,0,-1
 1520 1536 l 1,1,-1
 1268 1536 l 1,2,-1
 1268 1792 l 1,3,-1
 252 1792 l 1,4,-1
 252 1536 l 1,5,-1
 0 1536 l 1,6,-1
 0 1278 l 1,7,-1
 260 1278 l 1,8,-1
 260 1534 l 1,9,-1
 1260 1534 l 1,10,-1
 1260 1282 l 1,11,-1
 756 1282 l 1,12,-1
 756 1022 l 1,13,-1
 1260 1022 l 1,14,-1
 1260 514 l 1,15,-1
 260 514 l 1,16,-1
 260 770 l 1,17,-1
 0 770 l 1,18,-1
 0 512 l 1,19,-1
 252 512 l 1,20,-1
 252 256 l 1,21,-1
 1268 256 l 1,22,-1
 1268 512 l 1,23,-1
 1520 512 l 1,24,-1
 1520 1026 l 1,25,-1
 1268 1026 l 1,26,-1
 1268 1278 l 1,27,-1
 1520 1278 l 1,0,-1
0 2048 m 1,28,-1
 2023 2048 l 1,29,-1
 2023 0 l 1,30,-1
 0 0 l 1,31,-1
 0 2048 l 1,28,-1
EndSplineSet
EndChar

StartChar: guilsinglright
Encoding: 8250 8250 107
Width: 2023
GlyphClass: 1
Flags: W
LayerCount: 2
Fore
SplineSet
1016 770 m 1,0,-1
 1016 1792 l 1,1,-1
 756 1792 l 1,2,-1
 756 1536 l 1,3,-1
 504 1536 l 1,4,-1
 504 1282 l 1,5,-1
 252 1282 l 1,6,-1
 252 1026 l 1,7,-1
 0 1026 l 1,8,-1
 0 512 l 1,9,-1
 756 512 l 1,10,-1
 756 256 l 1,11,-1
 1016 256 l 1,12,-1
 1016 512 l 1,13,-1
 1520 512 l 1,14,-1
 1520 770 l 1,15,-1
 1016 770 l 1,0,-1
260 770 m 1,16,-1
 260 1022 l 1,17,-1
 512 1022 l 1,18,-1
 512 1278 l 1,19,-1
 756 1278 l 1,20,-1
 756 770 l 1,21,-1
 260 770 l 1,16,-1
0 2048 m 1,22,-1
 2023 2048 l 1,23,-1
 2023 0 l 1,24,-1
 0 0 l 1,25,-1
 0 2048 l 1,22,-1
EndSplineSet
EndChar

StartChar: fi
Encoding: 61441 61441 108
Width: 2023
GlyphClass: 1
Flags: W
LayerCount: 2
Fore
SplineSet
1520 1534 m 1,0,-1
 1520 1792 l 1,1,-1
 0 1792 l 1,2,-1
 0 1022 l 1,3,-1
 1260 1022 l 1,4,-1
 1260 514 l 1,5,-1
 260 514 l 1,6,-1
 260 770 l 1,7,-1
 0 770 l 1,8,-1
 0 512 l 1,9,-1
 252 512 l 1,10,-1
 252 256 l 1,11,-1
 1268 256 l 1,12,-1
 1268 512 l 1,13,-1
 1520 512 l 1,14,-1
 1520 1026 l 1,15,-1
 1268 1026 l 1,16,-1
 1268 1282 l 1,17,-1
 260 1282 l 1,18,-1
 260 1534 l 1,19,-1
 1520 1534 l 1,0,-1
0 2048 m 1,20,-1
 2023 2048 l 1,21,-1
 2023 0 l 1,22,-1
 0 0 l 1,23,-1
 0 2048 l 1,20,-1
EndSplineSet
EndChar

StartChar: fl
Encoding: 61442 61442 109
Width: 2023
GlyphClass: 1
Flags: W
LayerCount: 2
Fore
SplineSet
1268 1026 m 1,0,-1
 1268 1282 l 1,1,-1
 260 1282 l 1,2,-1
 260 1534 l 1,3,-1
 1268 1534 l 1,4,-1
 1268 1792 l 1,5,-1
 252 1792 l 1,6,-1
 252 1536 l 1,7,-1
 0 1536 l 1,8,-1
 0 512 l 1,9,-1
 252 512 l 1,10,-1
 252 256 l 1,11,-1
 1268 256 l 1,12,-1
 1268 512 l 1,13,-1
 1520 512 l 1,14,-1
 1520 1026 l 1,15,-1
 1268 1026 l 1,0,-1
1260 514 m 1,16,-1
 260 514 l 1,17,-1
 260 1022 l 1,18,-1
 1260 1022 l 1,19,-1
 1260 514 l 1,16,-1
0 2048 m 1,20,-1
 2023 2048 l 1,21,-1
 2023 0 l 1,22,-1
 0 0 l 1,23,-1
 0 2048 l 1,20,-1
EndSplineSet
EndChar

StartChar: daggerdbl
Encoding: 8225 8225 110
Width: 2023
GlyphClass: 1
Flags: W
LayerCount: 2
Fore
SplineSet
0 1792 m 1,0,-1
 0 1534 l 1,1,-1
 1260 1534 l 1,2,-1
 1260 1282 l 1,3,-1
 1008 1282 l 1,4,-1
 1008 1026 l 1,5,-1
 756 1026 l 1,6,-1
 756 770 l 1,7,-1
 504 770 l 1,8,-1
 504 256 l 1,9,-1
 764 256 l 1,10,-1
 764 766 l 1,11,-1
 1016 766 l 1,12,-1
 1016 1022 l 1,13,-1
 1268 1022 l 1,14,-1
 1268 1278 l 1,15,-1
 1520 1278 l 1,16,-1
 1520 1792 l 1,17,-1
 0 1792 l 1,0,-1
0 2048 m 1,18,-1
 2023 2048 l 1,19,-1
 2023 0 l 1,20,-1
 0 0 l 1,21,-1
 0 2048 l 1,18,-1
EndSplineSet
EndChar

StartChar: periodcentered
Encoding: 8729 8729 111
Width: 2023
GlyphClass: 1
Flags: W
LayerCount: 2
Fore
SplineSet
1268 1536 m 1,0,-1
 1268 1792 l 1,1,-1
 252 1792 l 1,2,-1
 252 1536 l 1,3,-1
 0 1536 l 1,4,-1
 0 1022 l 1,5,-1
 252 1022 l 1,6,-1
 252 766 l 1,7,-1
 1260 766 l 1,8,-1
 1260 514 l 1,9,-1
 252 514 l 1,10,-1
 252 256 l 1,11,-1
 1268 256 l 1,12,-1
 1268 512 l 1,13,-1
 1520 512 l 1,14,-1
 1520 1536 l 1,15,-1
 1268 1536 l 1,0,-1
1260 1026 m 1,16,-1
 260 1026 l 1,17,-1
 260 1534 l 1,18,-1
 1260 1534 l 1,19,-1
 1260 1026 l 1,16,-1
0 2048 m 1,20,-1
 2023 2048 l 1,21,-1
 2023 0 l 1,22,-1
 0 0 l 1,23,-1
 0 2048 l 1,20,-1
EndSplineSet
EndChar

StartChar: quotesinglbase
Encoding: 8218 8218 112
Width: 2023
GlyphClass: 1
Flags: W
LayerCount: 2
Fore
SplineSet
1268 1536 m 1,0,-1
 1268 1792 l 1,1,-1
 252 1792 l 1,2,-1
 252 1536 l 1,3,-1
 0 1536 l 1,4,-1
 0 512 l 1,5,-1
 252 512 l 1,6,-1
 252 256 l 1,7,-1
 1268 256 l 1,8,-1
 1268 512 l 1,9,-1
 1520 512 l 1,10,-1
 1520 1536 l 1,11,-1
 1268 1536 l 1,0,-1
260 1534 m 1,12,-1
 1008 1534 l 1,13,-1
 1008 1282 l 1,14,-1
 756 1282 l 1,15,-1
 756 1026 l 1,16,-1
 504 1026 l 1,17,-1
 504 770 l 1,18,-1
 260 770 l 1,19,-1
 260 1534 l 1,12,-1
1260 514 m 1,20,-1
 512 514 l 1,21,-1
 512 766 l 1,22,-1
 764 766 l 1,23,-1
 764 1022 l 1,24,-1
 1016 1022 l 1,25,-1
 1016 1278 l 1,26,-1
 1260 1278 l 1,27,-1
 1260 514 l 1,20,-1
0 2048 m 1,28,-1
 2023 2048 l 1,29,-1
 2023 0 l 1,30,-1
 0 0 l 1,31,-1
 0 2048 l 1,28,-1
EndSplineSet
EndChar

StartChar: perthousand
Encoding: 8240 8240 113
Width: 2023
GlyphClass: 1
Flags: W
LayerCount: 2
Fore
SplineSet
1008 2048 m 1,0,-1
 1008 0 l 1,1,-1
 2023 0 l 1,2,-1
 2023 2048 l 1,3,-1
 1008 2048 l 1,0,-1
EndSplineSet
EndChar

StartChar: Egrave
Encoding: 200 200 114
Width: 2023
GlyphClass: 1
Flags: W
LayerCount: 2
Fore
SplineSet
1008 2048 m 1,0,-1
 1008 1026 l 1,1,-1
 0 1026 l 1,2,-1
 0 0 l 1,3,-1
 1016 0 l 1,4,-1
 1016 1022 l 1,5,-1
 2023 1022 l 1,6,-1
 2023 2048 l 1,7,-1
 1008 2048 l 1,0,-1
EndSplineSet
EndChar

StartChar: Icircumflex
Encoding: 206 206 115
Width: 2023
GlyphClass: 1
Flags: W
LayerCount: 2
Fore
SplineSet
1008 1026 m 1,0,-1
 1008 0 l 1,1,-1
 2023 0 l 1,2,-1
 2023 1026 l 1,3,-1
 1008 1026 l 1,0,-1
EndSplineSet
EndChar

StartChar: Idieresis
Encoding: 207 207 116
Width: 2023
GlyphClass: 1
Flags: W
LayerCount: 2
Fore
SplineSet
1016 1026 m 1,0,-1
 1016 2048 l 1,1,-1
 0 2048 l 1,2,-1
 0 1022 l 1,3,-1
 1008 1022 l 1,4,-1
 1008 0 l 1,5,-1
 2023 0 l 1,6,-1
 2023 1026 l 1,7,-1
 1016 1026 l 1,0,-1
EndSplineSet
EndChar

StartChar: Igrave
Encoding: 204 204 117
Width: 2023
GlyphClass: 1
Flags: W
LayerCount: 2
Fore
SplineSet
0 2048 m 1,0,-1
 0 1022 l 1,1,-1
 1008 1022 l 1,2,-1
 1008 0 l 1,3,-1
 2023 0 l 1,4,-1
 2023 2048 l 1,5,-1
 0 2048 l 1,0,-1
EndSplineSet
EndChar

StartChar: Oacute
Encoding: 211 211 118
Width: 2023
GlyphClass: 1
Flags: W
LayerCount: 2
Fore
SplineSet
0 1026 m 1,0,-1
 0 0 l 1,1,-1
 1016 0 l 1,2,-1
 1016 1026 l 1,3,-1
 0 1026 l 1,0,-1
EndSplineSet
EndChar

StartChar: Ocircumflex
Encoding: 212 212 119
Width: 2023
GlyphClass: 1
Flags: W
LayerCount: 2
Fore
SplineSet
0 2048 m 1,0,-1
 0 0 l 1,1,-1
 1016 0 l 1,2,-1
 1016 2048 l 1,3,-1
 0 2048 l 1,0,-1
EndSplineSet
EndChar

StartChar: apple
Encoding: 61440 61440 120
Width: 2023
GlyphClass: 1
Flags: W
LayerCount: 2
Fore
SplineSet
0 2048 m 1,0,-1
 0 0 l 1,1,-1
 1016 0 l 1,2,-1
 1016 1022 l 1,3,-1
 2023 1022 l 1,4,-1
 2023 2048 l 1,5,-1
 0 2048 l 1,0,-1
EndSplineSet
EndChar

StartChar: Ograve
Encoding: 210 210 121
Width: 2023
GlyphClass: 1
Flags: W
LayerCount: 2
Fore
SplineSet
0 1026 m 1,0,-1
 0 0 l 1,1,-1
 2023 0 l 1,2,-1
 2023 1026 l 1,3,-1
 0 1026 l 1,0,-1
EndSplineSet
EndChar

StartChar: dotlessi
Encoding: 305 305 122
Width: 2023
GlyphClass: 1
Flags: W
LayerCount: 2
Fore
SplineSet
0 2048 m 1,0,-1
 0 1022 l 1,1,-1
 1016 1022 l 1,2,-1
 1016 2048 l 1,3,-1
 0 2048 l 1,0,-1
EndSplineSet
EndChar

StartChar: circumflex
Encoding: 710 710 123
Width: 2023
GlyphClass: 1
Flags: W
LayerCount: 2
Fore
SplineSet
1016 1026 m 1,0,-1
 1016 2048 l 1,1,-1
 0 2048 l 1,2,-1
 0 0 l 1,3,-1
 2023 0 l 1,4,-1
 2023 1026 l 1,5,-1
 1016 1026 l 1,0,-1
EndSplineSet
EndChar

StartChar: tilde
Encoding: 732 732 124
Width: 2023
GlyphClass: 1
Flags: W
LayerCount: 2
Fore
SplineSet
1008 2048 m 1,0,-1
 1008 1026 l 1,1,-1
 0 1026 l 1,2,-1
 0 0 l 1,3,-1
 2023 0 l 1,4,-1
 2023 2048 l 1,5,-1
 1008 2048 l 1,0,-1
EndSplineSet
EndChar

StartChar: uni0001
Encoding: 1 1 126
Width: 2023
Flags: W
LayerCount: 2
Fore
SplineSet
0 2048 m 1,0,-1
 0 1022 l 1,1,-1
 2023 1022 l 1,2,-1
 2023 2048 l 1,3,-1
 0 2048 l 1,0,-1
EndSplineSet
EndChar

StartChar: uni0002
Encoding: 2 2 127
Width: 2023
Flags: W
LayerCount: 2
Fore
SplineSet
0 2048 m 1,0,-1
 0 1022 l 1,1,-1
 1016 1022 l 1,2,-1
 1016 2048 l 1,3,-1
 0 2048 l 1,0,-1
EndSplineSet
EndChar

StartChar: uni0003
Encoding: 3 3 128
Width: 2023
Flags: W
LayerCount: 2
Fore
SplineSet
1008 1026 m 1,0,-1
 1008 0 l 1,1,-1
 2023 0 l 1,2,-1
 2023 1026 l 1,3,-1
 1008 1026 l 1,0,-1
EndSplineSet
EndChar

StartChar: uni0006
Encoding: 6 6 129
Width: 2023
Flags: W
LayerCount: 2
Fore
SplineSet
1016 1026 m 1,0,-1
 1016 2048 l 1,1,-1
 0 2048 l 1,2,-1
 0 1022 l 1,3,-1
 1008 1022 l 1,4,-1
 1008 0 l 1,5,-1
 2023 0 l 1,6,-1
 2023 1026 l 1,7,-1
 1016 1026 l 1,0,-1
EndSplineSet
EndChar

StartChar: uni0004
Encoding: 4 4 130
Width: 2023
Flags: W
LayerCount: 2
Fore
SplineSet
0 2048 m 1,0,-1
 0 0 l 1,1,-1
 1016 0 l 1,2,-1
 1016 2048 l 1,3,-1
 0 2048 l 1,0,-1
EndSplineSet
EndChar

StartChar: uni0005
Encoding: 5 5 131
Width: 2023
Flags: W
LayerCount: 2
Fore
SplineSet
1008 2048 m 1,0,-1
 1008 1026 l 1,1,-1
 0 1026 l 1,2,-1
 0 0 l 1,3,-1
 1016 0 l 1,4,-1
 1016 1022 l 1,5,-1
 2023 1022 l 1,6,-1
 2023 2048 l 1,7,-1
 1008 2048 l 1,0,-1
EndSplineSet
EndChar

StartChar: uni0007
Encoding: 7 7 132
Width: 2023
Flags: W
LayerCount: 2
Fore
SplineSet
0 2048 m 1,0,-1
 0 1022 l 1,1,-1
 1008 1022 l 1,2,-1
 1008 0 l 1,3,-1
 2023 0 l 1,4,-1
 2023 2048 l 1,5,-1
 0 2048 l 1,0,-1
EndSplineSet
EndChar

StartChar: uni0008
Encoding: 8 8 133
Width: 2023
Flags: W
LayerCount: 2
Fore
SplineSet
0 2048 m 1,0,-1
 0 0 l 1,1,-1
 1016 0 l 1,2,-1
 1016 1022 l 1,3,-1
 2023 1022 l 1,4,-1
 2023 2048 l 1,5,-1
 0 2048 l 1,0,-1
EndSplineSet
EndChar

StartChar: uni0009
Encoding: 9 9 134
Width: 2023
Flags: W
LayerCount: 2
Fore
SplineSet
1008 2048 m 1,0,-1
 1008 1022 l 1,1,-1
 2023 1022 l 1,2,-1
 2023 2048 l 1,3,-1
 1008 2048 l 1,0,-1
EndSplineSet
EndChar

StartChar: uni000A
Encoding: 10 10 135
Width: 2023
Flags: W
LayerCount: 2
Fore
SplineSet
0 1026 m 1,0,-1
 0 0 l 1,1,-1
 2023 0 l 1,2,-1
 2023 1026 l 1,3,-1
 0 1026 l 1,0,-1
EndSplineSet
EndChar

StartChar: uni000B
Encoding: 11 11 136
Width: 2023
Flags: W
LayerCount: 2
Fore
SplineSet
0 1026 m 1,0,-1
 0 0 l 1,1,-1
 1016 0 l 1,2,-1
 1016 1026 l 1,3,-1
 0 1026 l 1,0,-1
EndSplineSet
EndChar

StartChar: uni000E
Encoding: 14 14 137
Width: 2023
Flags: W
LayerCount: 2
Fore
SplineSet
0 2048 m 1,0,-1
 0 0 l 1,1,-1
 2023 0 l 1,2,-1
 2023 2048 l 1,3,-1
 0 2048 l 1,0,-1
EndSplineSet
EndChar

StartChar: uni000C
Encoding: 12 12 138
Width: 2023
Flags: W
LayerCount: 2
Fore
SplineSet
1008 2048 m 1,0,-1
 1008 1026 l 1,1,-1
 0 1026 l 1,2,-1
 0 0 l 1,3,-1
 2023 0 l 1,4,-1
 2023 2048 l 1,5,-1
 1008 2048 l 1,0,-1
EndSplineSet
EndChar

StartChar: uni000D
Encoding: 13 13 139
Width: 2023
Flags: W
LayerCount: 2
Fore
SplineSet
1016 1026 m 1,0,-1
 1016 2048 l 1,1,-1
 0 2048 l 1,2,-1
 0 0 l 1,3,-1
 2023 0 l 1,4,-1
 2023 1026 l 1,5,-1
 1016 1026 l 1,0,-1
EndSplineSet
EndChar

StartChar: uni008B
Encoding: 139 139 140
Width: 2023
Flags: W
LayerCount: 2
Fore
SplineSet
0 482 m 1,0,-1
 2 -1 l 5,1,-1
 2025 -1 l 5,2,-1
 2023 482 l 1,3,-1
 0 482 l 1,0,-1
EndSplineSet
EndChar
